<svg width="512" height="512" viewBox="0 0 512 512" fill="none" xmlns="http://www.w3.org/2000/svg">
<g clip-path="url(#clip0_250_182)">
<rect width="512" height="512" rx="10" fill="#1FDB99"/>
<path d="M0 0H512V512H0V0Z" fill="#1FDB99"/>
<path d="M332.878 172.398V209.652C315.802 202.373 287.746 213.19 256.005 213.19C224.263 213.19 196.161 202.419 179.085 209.652V172.398C195.19 162.407 223.594 155.797 255.95 155.797C288.305 155.797 316.774 162.407 332.878 172.398Z" fill="white"/>
<path d="M409.44 160.747L384.106 170.748V218.516C385.687 219.45 386.997 220.782 387.906 222.379C388.814 223.975 389.289 225.782 389.285 227.619C389.301 229.445 388.836 231.244 387.936 232.834C387.037 234.423 385.735 235.748 384.161 236.675C385.732 237.614 387.031 238.947 387.93 240.542C388.828 242.137 389.295 243.938 389.285 245.769V274.396H368.57V245.805C368.566 243.981 369.036 242.187 369.934 240.599C370.833 239.012 372.128 237.685 373.694 236.749C372.125 235.8 370.828 234.461 369.93 232.862C369.032 231.263 368.563 229.46 368.569 227.626C368.574 225.792 369.054 223.991 369.962 222.398C370.87 220.805 372.174 219.474 373.749 218.534V135.337L409.44 149.445C410.566 149.9 411.53 150.681 412.209 151.688C412.888 152.695 413.25 153.882 413.25 155.096C413.25 156.31 412.888 157.497 412.209 158.504C411.53 159.511 410.566 160.292 409.44 160.747Z" fill="white"/>
<path d="M367.286 132.798V177.495L339.413 188.532V168.75L336.287 166.834C318.542 155.834 288.488 149.243 255.986 149.243C223.484 149.243 193.466 155.797 175.731 166.834L172.596 168.75V188.532L102.523 160.793C101.396 160.342 100.43 159.563 99.7496 158.558C99.069 157.552 98.7053 156.365 98.7053 155.151C98.7053 153.937 99.069 152.75 99.7496 151.745C100.43 150.739 101.396 149.96 102.523 149.509L245.005 93.097C252.053 90.301 259.901 90.301 266.948 93.097L367.286 132.798Z" fill="white"/>
<path d="M418.725 349.93C418.064 349.644 417.324 349.596 416.632 349.795C415.94 349.994 415.339 350.427 414.93 351.021C403.437 366.604 390.825 376.413 377.351 380.263C375.6 392.849 371.659 403.418 365.6 411.741C367.708 411.796 369.807 411.842 371.961 411.842C401.741 411.833 418.239 392.179 420.989 353.413C421.05 352.664 420.86 351.916 420.451 351.286C420.041 350.656 419.434 350.179 418.725 349.93Z" fill="white"/>
<path d="M97.0334 351.076C96.6357 350.483 96.0429 350.048 95.358 349.847C94.6731 349.646 93.9395 349.692 93.2846 349.976C92.559 350.217 91.9381 350.7 91.526 351.344C91.1139 351.988 90.9355 352.754 91.0207 353.514C93.7704 392.28 110.269 411.952 140.048 411.952C142.202 411.952 144.301 411.897 146.409 411.842C140.351 403.519 136.327 392.959 134.659 380.363C121.13 376.458 108.518 366.632 97.0334 351.076Z" fill="white"/>
<path d="M362.978 364.395C362.26 364.155 361.478 364.193 360.786 364.5C360.094 364.807 359.542 365.361 359.238 366.055C350.164 383.178 339.651 392.079 327.955 392.391C303.437 393.069 292.878 374.332 292.465 373.498C291.642 372.003 291.439 370.244 291.898 368.601C292.357 366.957 293.443 365.559 294.922 364.707C295.656 364.295 296.465 364.033 297.302 363.939C298.139 363.844 298.986 363.917 299.794 364.155C300.602 364.392 301.354 364.789 302.006 365.321C302.659 365.854 303.198 366.511 303.593 367.255C303.858 367.723 311.035 379.951 327.589 379.42C331.035 379.319 334.27 377.586 337.185 374.91C331.434 371.62 326.038 367.747 321.081 363.35C316.703 359.48 313.868 354.161 313.095 348.369C312.322 342.576 313.664 336.7 316.874 331.817C333.29 307.112 343.849 276.248 343.849 253.203C343.849 235.09 340.879 223.75 334.775 218.369C326.828 211.348 312.062 213.529 293.446 216.234C282.163 217.902 269.441 219.726 256.004 219.726C242.567 219.726 229.845 217.847 218.571 216.234C199.909 213.484 185.18 211.394 177.233 218.369C171.129 223.723 168.159 235.117 168.159 253.203C168.159 276.248 178.773 307.112 195.134 331.817C198.333 336.703 199.668 342.577 198.895 348.366C198.123 354.155 195.295 359.474 190.927 363.35C185.962 367.732 180.57 371.604 174.832 374.91C177.756 377.559 180.973 379.319 184.419 379.42C189.137 379.661 193.836 378.66 198.047 376.518C202.257 374.375 205.832 371.166 208.415 367.21C209.248 365.742 210.624 364.662 212.247 364.202C213.87 363.743 215.608 363.94 217.086 364.753C218.556 365.601 219.636 366.991 220.095 368.625C220.555 370.259 220.356 372.008 219.543 373.498C215.851 379.528 210.613 384.459 204.372 387.781C198.132 391.104 191.116 392.695 184.053 392.391C172.357 392.079 161.798 383.178 152.77 366.055C152.446 365.367 151.884 364.82 151.188 364.515C150.492 364.21 149.709 364.168 148.984 364.395C148.218 364.572 147.539 365.014 147.068 365.643C146.596 366.272 146.363 367.048 146.409 367.833C146.977 392.079 155.85 421 195.079 421C214.107 421 229.341 407.946 240.358 382.234C241.644 379.162 243.809 376.539 246.582 374.694C249.354 372.849 252.61 371.864 255.94 371.864C259.27 371.864 262.526 372.849 265.298 374.694C268.07 376.539 270.235 379.162 271.522 382.234C282.585 407.992 297.846 421 316.828 421C356.058 421 364.93 392.079 365.498 367.833C365.564 367.052 365.345 366.274 364.882 365.642C364.418 365.01 363.742 364.567 362.978 364.395ZM227.7 305.077C224.843 305.076 222.051 304.227 219.677 302.638C217.303 301.05 215.453 298.793 214.361 296.153C213.269 293.513 212.984 290.608 213.543 287.807C214.101 285.005 215.478 282.432 217.498 280.412C219.519 278.393 222.093 277.018 224.894 276.461C227.696 275.904 230.6 276.191 233.239 277.285C235.878 278.378 238.134 280.23 239.721 282.606C241.307 284.981 242.154 287.774 242.154 290.631C242.154 292.529 241.781 294.408 241.054 296.161C240.327 297.915 239.263 299.508 237.92 300.849C236.578 302.191 234.984 303.255 233.231 303.98C231.477 304.706 229.598 305.079 227.7 305.077ZM284.418 305.077C281.56 305.077 278.767 304.23 276.392 302.642C274.016 301.054 272.164 298.797 271.071 296.157C269.978 293.517 269.693 290.612 270.251 287.809C270.809 285.006 272.186 282.432 274.207 280.412C276.228 278.392 278.803 277.017 281.605 276.46C284.408 275.904 287.313 276.191 289.952 277.286C292.592 278.381 294.847 280.234 296.433 282.611C298.019 284.988 298.865 287.782 298.863 290.64C298.861 292.535 298.485 294.41 297.758 296.16C297.031 297.91 295.966 299.499 294.625 300.837C293.283 302.175 291.691 303.236 289.94 303.959C288.189 304.682 286.312 305.052 284.418 305.05V305.077Z" fill="white"/>
</g>
<defs>
<clipPath id="clip0_250_182">
<rect width="512" height="512" rx="10" fill="white"/>
</clipPath>
</defs>
</svg>
