<svg width="330" height="330" viewBox="0 0 330 330" fill="none" xmlns="http://www.w3.org/2000/svg">
<path d="M241.878 81.3983V118.652C224.802 111.373 196.746 122.19 165.005 122.19C133.264 122.19 105.161 111.419 88.0854 118.652V81.3983C104.19 71.4066 132.594 64.7974 164.95 64.7974C197.305 64.7974 225.774 71.4066 241.878 81.3983Z" fill="#1FDB99"/>
<path d="M318.44 69.7474L293.106 79.7483V127.516C294.687 128.451 295.997 129.782 296.905 131.379C297.814 132.975 298.289 134.782 298.285 136.619C298.301 138.445 297.836 140.244 296.936 141.834C296.037 143.423 294.735 144.748 293.161 145.675C294.732 146.614 296.031 147.947 296.93 149.542C297.828 151.137 298.295 152.938 298.285 154.769V183.396H277.57V154.805C277.566 152.981 278.036 151.187 278.934 149.599C279.832 148.012 281.128 146.685 282.694 145.749C281.125 144.8 279.828 143.461 278.93 141.862C278.032 140.263 277.563 138.46 277.569 136.626C277.574 134.792 278.054 132.991 278.962 131.398C279.87 129.805 281.174 128.474 282.749 127.534V44.3373L318.44 58.4448C319.566 58.9001 320.53 59.6813 321.209 60.6881C321.888 61.695 322.25 62.8817 322.25 64.0961C322.25 65.3105 321.888 66.4972 321.209 67.5041C320.53 68.511 319.566 69.2921 318.44 69.7474Z" fill="#1FDB99"/>
<path d="M276.286 41.7981V86.495L248.413 97.5317V77.7499L245.287 75.8341C227.542 64.834 197.488 58.2431 164.986 58.2431C132.484 58.2431 102.466 64.7973 84.7306 75.8341L81.5959 77.7499V97.5317L11.5236 69.7932C10.3964 69.3419 9.43025 68.5632 8.74971 67.5575C8.06916 66.5519 7.70544 65.3654 7.70544 64.1511C7.70544 62.9368 8.06916 61.7503 8.74971 60.7447C9.43025 59.739 10.3964 58.9603 11.5236 58.509L154.005 2.09702C161.053 -0.699008 168.901 -0.699008 175.948 2.09702L276.286 41.7981Z" fill="#1FDB99"/>
<path d="M327.725 258.93C327.064 258.644 326.324 258.596 325.632 258.795C324.94 258.994 324.338 259.427 323.93 260.021C312.437 275.604 299.824 285.413 286.351 289.263C284.6 301.849 280.659 312.418 274.6 320.741C276.708 320.796 278.807 320.842 280.961 320.842C310.741 320.833 327.239 301.179 329.989 262.413C330.05 261.664 329.86 260.916 329.451 260.286C329.041 259.656 328.434 259.179 327.725 258.93Z" fill="#1FDB99"/>
<path d="M6.03352 260.076C5.63587 259.483 5.04305 259.048 4.35815 258.847C3.67325 258.646 2.93959 258.692 2.28472 258.976C1.55908 259.217 0.938233 259.7 0.526108 260.344C0.113982 260.988 -0.0644127 261.754 0.0207778 262.514C2.77051 301.28 19.2689 320.952 49.0485 320.952C51.2024 320.952 53.3014 320.897 55.4095 320.842C49.3509 312.519 45.3272 301.959 43.659 289.363C30.1303 285.458 17.5182 275.632 6.03352 260.076Z" fill="#1FDB99"/>
<path d="M271.978 273.395C271.26 273.155 270.478 273.193 269.786 273.5C269.094 273.807 268.542 274.361 268.238 275.054C259.164 292.178 248.651 301.079 236.955 301.39C212.437 302.069 201.878 283.332 201.465 282.498C200.642 281.003 200.439 279.244 200.898 277.6C201.357 275.957 202.443 274.559 203.922 273.707C204.656 273.295 205.465 273.033 206.302 272.939C207.139 272.844 207.986 272.917 208.794 273.155C209.602 273.392 210.354 273.789 211.006 274.321C211.659 274.854 212.198 275.511 212.593 276.255C212.858 276.723 220.035 288.951 236.589 288.419C240.035 288.319 243.271 286.586 246.185 283.909C240.434 280.62 235.038 276.746 230.081 272.35C225.703 268.48 222.868 263.161 222.095 257.368C221.322 251.576 222.664 245.699 225.874 240.817C242.29 216.112 252.849 185.248 252.849 162.203C252.849 144.09 249.879 132.75 243.775 127.369C235.828 120.348 221.062 122.529 202.446 125.234C191.163 126.902 178.441 128.726 165.004 128.726C151.567 128.726 138.845 126.847 127.571 125.234C108.91 122.484 94.1801 120.394 86.2334 127.369C80.129 132.723 77.1593 144.117 77.1593 162.203C77.1593 185.248 87.7732 216.112 104.134 240.817C107.333 245.703 108.668 251.577 107.895 257.366C107.123 263.155 104.295 268.473 99.927 272.35C94.9619 276.732 89.5699 280.604 83.832 283.909C86.7558 286.559 89.973 288.319 93.4193 288.419C98.1374 288.661 102.836 287.66 107.047 285.518C111.257 283.375 114.833 280.166 117.415 276.209C118.248 274.742 119.624 273.662 121.247 273.202C122.87 272.742 124.608 272.94 126.086 273.753C127.556 274.601 128.637 275.991 129.096 277.625C129.555 279.259 129.356 281.008 128.543 282.498C124.851 288.527 119.613 293.459 113.372 296.781C107.132 300.103 100.116 301.695 93.0527 301.39C81.3572 301.079 70.7982 292.178 61.7699 275.054C61.446 274.367 60.8841 273.82 60.1881 273.515C59.4922 273.21 58.7094 273.168 57.9845 273.395C57.2183 273.571 56.5392 274.013 56.0678 274.643C55.5963 275.272 55.3629 276.048 55.4089 276.833C55.9772 301.079 64.8496 330 104.079 330C123.107 330 138.341 316.946 149.358 291.234C150.644 288.162 152.809 285.538 155.582 283.693C158.354 281.848 161.61 280.864 164.94 280.864C168.27 280.864 171.526 281.848 174.298 283.693C177.07 285.538 179.236 288.162 180.522 291.234C191.585 316.992 206.846 330 225.828 330C265.058 330 273.93 301.079 274.498 276.833C274.564 276.052 274.345 275.274 273.882 274.642C273.418 274.01 272.742 273.567 271.978 273.395ZM136.7 214.077C133.843 214.076 131.052 213.227 128.677 211.638C126.303 210.05 124.453 207.793 123.361 205.153C122.269 202.513 121.984 199.608 122.543 196.807C123.101 194.005 124.478 191.432 126.498 189.412C128.519 187.393 131.093 186.018 133.895 185.461C136.696 184.904 139.6 185.191 142.239 186.284C144.878 187.378 147.134 189.23 148.721 191.605C150.308 193.981 151.155 196.774 151.155 199.631C151.155 201.529 150.781 203.408 150.054 205.161C149.328 206.915 148.263 208.508 146.92 209.849C145.578 211.191 143.985 212.255 142.231 212.98C140.477 213.706 138.598 214.079 136.7 214.077ZM193.418 214.077C190.56 214.077 187.767 213.23 185.392 211.642C183.016 210.054 181.164 207.797 180.071 205.157C178.978 202.517 178.693 199.612 179.251 196.809C179.809 194.006 181.186 191.432 183.207 189.412C185.228 187.392 187.803 186.017 190.605 185.46C193.408 184.904 196.313 185.191 198.952 186.286C201.592 187.381 203.847 189.234 205.433 191.611C207.019 193.988 207.865 196.782 207.863 199.64C207.861 201.535 207.485 203.41 206.758 205.16C206.031 206.91 204.966 208.499 203.625 209.837C202.283 211.175 200.692 212.236 198.94 212.959C197.189 213.682 195.312 214.052 193.418 214.05V214.077Z" fill="#1FDB99"/>
</svg>
