<svg width="409" height="313" viewBox="0 0 409 313" fill="none" xmlns="http://www.w3.org/2000/svg">
<path d="M295.309 63C254.578 66.4144 168.754 85.5946 151.309 135" stroke="url(#paint0_linear_958_1408)" stroke-opacity="0.5" stroke-width="6" stroke-linecap="round"/>
<path d="M302.309 274C259.598 267.408 169.602 230.38 151.309 135" stroke="url(#paint1_linear_958_1408)" stroke-opacity="0.5" stroke-width="6" stroke-linecap="round"/>
<path d="M330.309 148C279.678 147.384 172.994 143.92 151.309 135" stroke="url(#paint2_linear_958_1408)" stroke-opacity="0.5" stroke-width="6" stroke-linecap="round"/>
<path d="M5.81625 140.862C3.71559 136.663 5.41597 131.557 9.61416 129.456L84.5387 91.9663C88.7369 89.8656 93.8432 91.566 95.9438 95.7642L145.628 195.058C147.728 199.256 146.028 204.362 141.83 206.463L66.9052 243.953C62.707 246.054 57.6008 244.354 55.5002 240.155L5.81625 140.862Z" fill="#1FDC9B" fill-opacity="0.5" stroke="#1FDC9B" stroke-width="3"/>
<path d="M300.683 260.071C298.583 255.872 300.283 250.766 304.481 248.665L334.547 233.622C338.745 231.521 343.851 233.221 345.952 237.419L367.296 280.075C369.396 284.274 367.696 289.38 363.498 291.481L333.432 306.524C329.234 308.625 324.128 306.925 322.027 302.727L300.683 260.071Z" fill="#1FDC9B" fill-opacity="0.5" stroke="#1FDC9B" stroke-width="3"/>
<path d="M285.822 48.8928C283.721 44.6946 285.422 39.5884 289.62 37.4877L319.685 22.4438C323.884 20.3432 328.99 22.0435 331.091 26.2417L352.434 68.8977C354.535 73.0959 352.835 78.2021 348.637 80.3028L318.571 95.3467C314.373 97.4474 309.267 95.747 307.166 91.5488L285.822 48.8928Z" fill="#1FDC9B" fill-opacity="0.5" stroke="#1FDC9B" stroke-width="3"/>
<path d="M33.6332 91.2185C32.3654 86.6985 35.0018 82.0065 39.5218 80.7388L120.189 58.1128C124.709 56.845 129.401 59.4814 130.669 64.0014L160.654 170.906C161.922 175.426 159.286 180.118 154.766 181.386L74.098 204.012C69.578 205.28 64.8861 202.643 63.6183 198.123L33.6332 91.2185Z" fill="#9758E4" fill-opacity="0.5" stroke="#9758E4" stroke-width="3"/>
<path d="M314.246 234.882C312.979 230.362 315.615 225.67 320.135 224.402L352.505 215.323C357.025 214.055 361.717 216.691 362.985 221.211L375.866 267.137C377.134 271.657 374.498 276.349 369.978 277.617L337.608 286.696C333.088 287.964 328.396 285.327 327.128 280.807L314.246 234.882Z" fill="#9758E4" fill-opacity="0.5" stroke="#9758E4" stroke-width="3"/>
<path d="M299.387 23.7038C298.119 19.1838 300.756 14.4919 305.276 13.2241L337.646 4.14485C342.166 2.87706 346.858 5.51349 348.125 10.0335L361.007 55.9591C362.275 60.4791 359.638 65.171 355.118 66.4388L322.748 75.5181C318.228 76.7859 313.536 74.1494 312.268 69.6294L299.387 23.7038Z" fill="#9758E4" fill-opacity="0.5" stroke="#9758E4" stroke-width="3"/>
<path d="M9.91 131.5C7.80934 127.302 9.50972 122.196 13.7079 120.095L88.6325 82.6049C92.8307 80.5043 97.9369 82.2047 100.038 86.4029L149.721 185.697C151.822 189.895 150.122 195.001 145.924 197.102L70.999 234.592C66.8008 236.693 61.6946 234.992 59.5939 230.794L9.91 131.5Z" fill="#1FDC9B" fill-opacity="0.5" stroke="#1FDC9B" stroke-width="3"/>
<path d="M302.797 255.235C300.696 251.036 302.396 245.93 306.595 243.83L336.66 228.786C340.858 226.685 345.964 228.385 348.065 232.584L369.409 275.24C371.51 279.438 369.809 284.544 365.611 286.645L335.546 301.689C331.347 303.789 326.241 302.089 324.141 297.891L302.797 255.235Z" fill="#1FDC9B" fill-opacity="0.5" stroke="#1FDC9B" stroke-width="3"/>
<path d="M328.84 143.531C326.739 139.333 328.439 134.227 332.638 132.126L362.703 117.082C366.901 114.982 372.007 116.682 374.108 120.88L395.452 163.536C397.553 167.735 395.852 172.841 391.654 174.941L361.589 189.985C357.39 192.086 352.284 190.386 350.184 186.187L328.84 143.531Z" fill="#1FDC9B" fill-opacity="0.5" stroke="#1FDC9B" stroke-width="3"/>
<path d="M342.405 118.342C341.137 113.822 343.773 109.131 348.293 107.863L380.663 98.7835C385.183 97.5157 389.875 100.152 391.143 104.672L404.024 150.598C405.292 155.118 402.656 159.81 398.136 161.077L365.766 170.157C361.246 171.425 356.554 168.788 355.286 164.268L342.405 118.342Z" fill="#9758E4" fill-opacity="0.5" stroke="#9758E4" stroke-width="3"/>
<path d="M330.955 138.696C328.854 134.497 330.555 129.391 334.753 127.29L364.818 112.247C369.016 110.146 374.123 111.846 376.223 116.044L397.567 158.7C399.668 162.899 397.968 168.005 393.769 170.106L363.704 185.149C359.506 187.25 354.399 185.55 352.299 181.352L330.955 138.696Z" fill="#1FDC9B" fill-opacity="0.5" stroke="#1FDC9B" stroke-width="3"/>
<path d="M287.937 44.0569C285.837 39.8587 287.537 34.7525 291.735 32.6518L321.801 17.6079C325.999 15.5072 331.105 17.2076 333.206 21.4058L354.55 64.0618C356.65 68.26 354.95 73.3662 350.752 75.4669L320.686 90.5108C316.488 92.6114 311.382 90.9111 309.281 86.7129L287.937 44.0569Z" fill="#1FDC9B" fill-opacity="0.5" stroke="#1FDC9B" stroke-width="3"/>
<defs>
<linearGradient id="paint0_linear_958_1408" x1="305.41" y1="57.1237" x2="181.05" y2="150.871" gradientUnits="userSpaceOnUse">
<stop offset="0.405" stop-color="#1FDC9B"/>
<stop offset="1" stop-color="#9758E4"/>
</linearGradient>
<linearGradient id="paint1_linear_958_1408" x1="312.901" y1="285.344" x2="137.754" y2="213.629" gradientUnits="userSpaceOnUse">
<stop offset="0.405" stop-color="#1FDC9B"/>
<stop offset="1" stop-color="#9758E4"/>
</linearGradient>
<linearGradient id="paint2_linear_958_1408" x1="342.865" y1="149.061" x2="334.187" y2="104.02" gradientUnits="userSpaceOnUse">
<stop offset="0.405" stop-color="#1FDC9B"/>
<stop offset="1" stop-color="#9758E4"/>
</linearGradient>
</defs>
</svg>
