<svg width="425" height="221" viewBox="0 0 425 221" fill="none" xmlns="http://www.w3.org/2000/svg">
<path d="M0 20C0 8.95431 8.95431 0 20 0H309C320.046 0 329 8.9543 329 20V28C329 39.0457 320.046 48 309 48H0V20Z" fill="#1FDC9B"/>
<path d="M425 77C425 65.9543 416.046 57 405 57H116C104.954 57 96 65.9543 96 77V86C96 97.0457 104.954 106 116 106H425V77Z" fill="#85B8EF"/>
<path d="M0 135C0 123.954 8.95431 115 20 115H309C320.046 115 329 123.954 329 135V144C329 155.046 320.046 164 309 164H0V135Z" fill="#1FDC9B"/>
<path d="M425 193C425 181.954 416.046 173 405 173H116C104.954 173 96 181.954 96 193V201C96 212.046 104.954 221 116 221H425V193Z" fill="#9758E4"/>
</svg>
